{"title":"Margarita With A Straw (2015) Pre DvD Rip - XviD - [1CD]- IcTv L","uid":11847114,"size":728663390,"categoryP":"video","categoryS":"other","magnet":"?xt=urn:btih:661fd4d102c1c928bb0f286610e08122d90b4ccd&amp;dn=Margarita+With+A+Straw+%282015%29+Pre+DvD+Rip+-+XviD+-+%5B1CD%5D-+IcTv+L&amp;tr=udp%3A%2F%2Ftracker.openbittorrent.com%3A80&amp;tr=udp%3A%2F%2Fopen.demonii.com%3A1337&amp;tr=udp%3A%2F%2Ftracker.coppersurfer.tk%3A6969&amp;tr=udp%3A%2F%2Fexodus.desync.com%3A6969","seeders":5,"leechers":3,"uploader":"SS132203","files":2,"time":1429969191,"description":"Margarita With A Straw (2015) Pre DvD Rip - XviD - [1CD]- IcTv LotterY Exclusive -={SPARROW}=-\n &lt;a href=&quot;\nhttp://imgsparrow.co/image/N3&quot; rel=&quot;nofollow&quot; target=&quot;_NEW&quot;&gt;\nhttp://imgsparrow.co/image/N3&lt;/a&gt;\n &lt;a href=&quot;\nhttp://imgsparrow.co/image/9b&quot; rel=&quot;nofollow&quot; target=&quot;_NEW&quot;&gt;\nhttp://imgsparrow.co/image/9b&lt;/a&gt;\n\nMovie Info\nBanner : Viacom 18 Motion Pictures\nYear : 2015\nCast : Kalki Koechlin\nVideo: XVID\nAudio : MP3\nGenre : Action / Drama\nSubtitles : None\nSource : Team IcTv\n\nFormat                                   : AVI\nFormat/Info                              : Audio Video Interleave\nFile size                                : 695 MiB\nDuration                                 : 1h 36mn\nOverall bit rate                         : 1 002 Kbps\n\nVideo\nID                                       : 0\nFormat                                   : MPEG-4 Visual\nFormat profile                           : Advanced Simple@L5\nFormat settings, BVOP                    : 2\nFormat settings, QPel                    : No\nFormat settings, GMC                     : No warppoints\nFormat settings, Matrix                  : Default (H.263)\nCodec ID                                 : XVID\nCodec ID/Hint                            : XviD\nDuration                                 : 1h 36mn\nBit rate                                 : 868 Kbps\nWidth                                    : 640 pixels\nHeight                                   : 272 pixels\nDisplay aspect ratio                     : 2.35:1\nFrame rate                               : 25.000 fps\nColor space                              : YUV\nChroma subsampling                       : 4:2:0\nBit depth                                : 8 bits\nScan type                                : Progressive\nCompression mode                         : Lossy\nBits/(Pixel*Frame)                       : 0.199\nStream size                              : 602 MiB (87%)\n\nAudio\nID                                       : 1\nFormat                                   : MPEG Audio\nFormat version                           : Version 1\nFormat profile                           : Layer 3\nMode                                     : Joint stereo\nMode extension                           : MS Stereo\nCodec ID                                 : 55\nCodec ID/Hint                            : MP3\nDuration                                 : 1h 36mn\nBit rate mode                            : Constant\nBit rate                                 : 128 Kbps\nChannel(s)                               : 2 channels\nSampling rate                            : 48.0 KHz\nCompression mode                         : Lossy\nStream size                              : 88.8 MiB (13%)\n &lt;a href=&quot;\nhttp://imgsparrow.co/image/9h&quot; rel=&quot;nofollow&quot; target=&quot;_NEW&quot;&gt;\nhttp://imgsparrow.co/image/9h&lt;/a&gt;\n &lt;a href=&quot;\nhttp://imgsparrow.co/image/Ni&quot; rel=&quot;nofollow&quot; target=&quot;_NEW&quot;&gt;\nhttp://imgsparrow.co/image/Ni&lt;/a&gt; &lt;a href=&quot;\nhttp://imgsparrow.co/image/NV&quot; rel=&quot;nofollow&quot; target=&quot;_NEW&quot;&gt;\nhttp://imgsparrow.co/image/NV&lt;/a&gt; &lt;a href=&quot;\nhttp://imgsparrow.co/image/Nl&quot; rel=&quot;nofollow&quot; target=&quot;_NEW&quot;&gt;\nhttp://imgsparrow.co/image/Nl&lt;/a&gt; &lt;a href=&quot;\nhttp://imgsparrow.co/image/Ns&quot; rel=&quot;nofollow&quot; target=&quot;_NEW&quot;&gt;\nhttp://imgsparrow.co/image/Ns&lt;/a&gt; &lt;a href=&quot;\nhttp://imgsparrow.co/image/NS&quot; rel=&quot;nofollow&quot; target=&quot;_NEW&quot;&gt;\nhttp://imgsparrow.co/image/NS&lt;/a&gt; &lt;a href=&quot;\nhttp://imgsparrow.co/image/NR&quot; rel=&quot;nofollow&quot; target=&quot;_NEW&quot;&gt;\nhttp://imgsparrow.co/image/NR&lt;/a&gt;\n\nAll Credit Goes To Intellect Clever &amp; IcTv\n &lt;a href=&quot;\nhttp://imgsparrow.co/image/N2&quot; rel=&quot;nofollow&quot; target=&quot;_NEW&quot;&gt;\nhttp://imgsparrow.co/image/N2&lt;/a&gt;","torrent":{"xt":"urn:btih:661fd4d102c1c928bb0f286610e08122d90b4ccd","amp;dn":"Margarita+With+A+Straw+%282015%29+Pre+DvD+Rip+-+XviD+-+%5B1CD%5D-+IcTv+L","amp;tr":["udp%3A%2F%2Ftracker.openbittorrent.com%3A80","udp%3A%2F%2Fopen.demonii.com%3A1337","udp%3A%2F%2Ftracker.coppersurfer.tk%3A6969","udp%3A%2F%2Fexodus.desync.com%3A6969"],"infoHash":"661fd4d102c1c928bb0f286610e08122d90b4ccd","infoHashBuffer":{"type":"Buffer","data":[102,31,212,209,2,193,201,40,187,15,40,102,16,224,129,34,217,11,76,205]},"announce":[],"urlList":[]}}